<?xml version="1.0" encoding="UTF-8"?>
<svg xmlns="http://www.w3.org/2000/svg" xmlns:xlink="http://www.w3.org/1999/xlink" width="40px" height="40px" viewBox="0 0 40 40" version="1.1">
<g id="surface1">
<path style=" stroke:none;fill-rule:nonzero;fill:rgb(37.254903%,70.980394%,31.764707%);fill-opacity:1;" d="M 20.832031 6.875 C 23.867188 8.097656 25.195312 11.605469 26.460938 14.351562 C 26.667969 14.796875 26.890625 15.234375 27.113281 15.667969 C 27.417969 16.273438 27.660156 16.867188 27.863281 17.511719 C 28.363281 18.929688 29.078125 20.214844 29.808594 21.523438 C 29.972656 21.824219 30.128906 22.125 30.289062 22.425781 C 31.777344 25.246094 33.882812 27.363281 36.875 28.542969 C 37.566406 28.730469 38.25 28.867188 38.957031 28.957031 C 38.964844 29.300781 38.96875 29.644531 38.972656 29.988281 C 38.972656 30.179688 38.976562 30.367188 38.980469 30.566406 C 38.957031 31.042969 38.957031 31.042969 38.75 31.25 C 38.265625 31.269531 37.785156 31.277344 37.300781 31.273438 C 37.148438 31.273438 36.996094 31.277344 36.835938 31.277344 C 36.320312 31.277344 35.800781 31.273438 35.285156 31.273438 C 34.914062 31.273438 34.546875 31.273438 34.175781 31.273438 C 33.167969 31.273438 32.164062 31.273438 31.15625 31.269531 C 30.105469 31.269531 29.054688 31.269531 28.003906 31.269531 C 26.015625 31.269531 24.023438 31.265625 22.03125 31.265625 C 19.765625 31.261719 17.5 31.261719 15.234375 31.261719 C 10.574219 31.257812 5.910156 31.253906 1.25 31.25 C 1.25 30.425781 1.25 29.601562 1.25 28.75 C 1.792969 28.6875 1.792969 28.6875 2.34375 28.621094 C 3.609375 28.414062 4.609375 27.972656 5.730469 27.363281 C 6.25 27.082031 6.25 27.082031 6.875 26.875 C 6.976562 26.566406 6.976562 26.566406 7.082031 26.25 C 7.222656 26.25 7.359375 26.25 7.5 26.25 C 7.550781 26.132812 7.601562 26.019531 7.65625 25.898438 C 7.917969 25.417969 7.917969 25.417969 8.292969 24.949219 C 9.269531 23.722656 9.992188 22.375 10.652344 20.964844 C 10.730469 20.796875 10.808594 20.628906 10.890625 20.457031 C 11.570312 18.992188 12.191406 17.507812 12.8125 16.015625 C 15.207031 10.273438 15.207031 10.273438 17.082031 8.125 C 17.222656 8.125 17.359375 8.125 17.5 8.125 C 17.5 7.988281 17.5 7.851562 17.5 7.707031 C 18.609375 6.953125 19.484375 6.613281 20.832031 6.875 Z M 20.832031 6.875 "/>
<path style=" stroke:none;fill-rule:nonzero;fill:rgb(51.764709%,84.313726%,38.82353%);fill-opacity:1;" d="M 20.417969 8.125 C 22.339844 8.894531 23.480469 10.566406 24.347656 12.382812 C 24.417969 12.527344 24.492188 12.671875 24.5625 12.824219 C 24.78125 13.269531 24.996094 13.71875 25.207031 14.167969 C 25.273438 14.300781 25.339844 14.4375 25.40625 14.574219 C 26.078125 15.96875 26.703125 17.367188 27.253906 18.816406 C 28.3125 21.5 29.710938 24.109375 31.667969 26.25 C 31.785156 26.382812 31.90625 26.515625 32.027344 26.65625 C 33.664062 28.390625 35.5625 29.410156 37.917969 29.792969 C 37.917969 29.859375 37.917969 29.929688 37.917969 30 C 32.078125 30.230469 26.265625 30.207031 20.417969 30.207031 C 20.417969 22.921875 20.417969 15.632812 20.417969 8.125 Z M 20.417969 8.125 "/>
<path style=" stroke:none;fill-rule:nonzero;fill:rgb(23.137255%,49.019608%,21.960784%);fill-opacity:1;" d="M 18.332031 8.125 C 18.203125 8.816406 18.101562 8.980469 17.589844 9.53125 C 15.804688 11.566406 14.910156 14.414062 13.855469 16.875 C 9.320312 27.417969 9.320312 27.417969 3.75 29.792969 C 4.15625 29.800781 4.15625 29.800781 4.570312 29.808594 C 9.648438 29.90625 14.71875 30.007812 19.792969 30.207031 C 19.792969 29.941406 19.789062 29.675781 19.789062 29.402344 C 19.785156 26.777344 19.804688 24.15625 19.835938 21.53125 C 19.84375 21.140625 19.847656 20.75 19.851562 20.359375 C 19.863281 19.347656 19.875 18.335938 19.886719 17.324219 C 19.902344 16.285156 19.914062 15.246094 19.925781 14.207031 C 19.949219 12.179688 19.976562 10.152344 20 8.125 C 20.070312 8.125 20.136719 8.125 20.207031 8.125 C 20.207031 15.414062 20.207031 22.699219 20.207031 30.207031 C 28.542969 30.058594 28.542969 30.058594 36.875 29.792969 C 36.722656 29.742188 36.570312 29.691406 36.410156 29.636719 C 34.820312 29.085938 33.746094 28.421875 32.5 27.292969 C 32.355469 27.167969 32.214844 27.042969 32.066406 26.914062 C 31.167969 26.089844 30.476562 25.164062 29.804688 24.152344 C 29.722656 24.035156 29.640625 23.914062 29.558594 23.789062 C 29.007812 22.921875 28.832031 22.25 28.75 21.25 C 29.4375 21.699219 29.730469 22.074219 30.050781 22.824219 C 31.289062 25.421875 33.355469 27.480469 36.042969 28.542969 C 36.683594 28.699219 37.1875 28.75 37.851562 28.75 C 38.542969 28.75 38.542969 28.75 38.957031 28.957031 C 38.964844 29.300781 38.96875 29.644531 38.972656 29.988281 C 38.972656 30.179688 38.976562 30.367188 38.980469 30.566406 C 38.957031 31.042969 38.957031 31.042969 38.75 31.25 C 38.265625 31.269531 37.785156 31.277344 37.300781 31.273438 C 37.148438 31.273438 36.996094 31.277344 36.835938 31.277344 C 36.320312 31.277344 35.800781 31.273438 35.285156 31.273438 C 34.914062 31.273438 34.546875 31.273438 34.175781 31.273438 C 33.167969 31.273438 32.164062 31.273438 31.15625 31.269531 C 30.105469 31.269531 29.054688 31.269531 28.003906 31.269531 C 26.015625 31.269531 24.023438 31.265625 22.03125 31.265625 C 19.765625 31.261719 17.5 31.261719 15.234375 31.261719 C 10.574219 31.257812 5.910156 31.253906 1.25 31.25 C 1.25 30.425781 1.25 29.601562 1.25 28.75 C 1.792969 28.6875 1.792969 28.6875 2.34375 28.621094 C 3.609375 28.414062 4.609375 27.972656 5.730469 27.363281 C 6.25 27.082031 6.25 27.082031 6.875 26.875 C 6.976562 26.566406 6.976562 26.566406 7.082031 26.25 C 7.222656 26.25 7.359375 26.25 7.5 26.25 C 7.550781 26.132812 7.601562 26.019531 7.65625 25.898438 C 7.917969 25.417969 7.917969 25.417969 8.292969 24.949219 C 9.269531 23.722656 9.992188 22.375 10.652344 20.964844 C 10.730469 20.796875 10.808594 20.628906 10.890625 20.457031 C 11.570312 18.992188 12.191406 17.507812 12.8125 16.015625 C 16.351562 7.53125 16.351562 7.53125 18.332031 8.125 Z M 18.332031 8.125 "/>
<path style=" stroke:none;fill-rule:nonzero;fill:rgb(27.450982%,60.784316%,24.705882%);fill-opacity:1;" d="M 20.832031 6.875 C 23.867188 8.097656 25.195312 11.605469 26.460938 14.351562 C 26.667969 14.796875 26.890625 15.234375 27.113281 15.667969 C 27.417969 16.273438 27.660156 16.867188 27.863281 17.511719 C 28.363281 18.929688 29.078125 20.214844 29.808594 21.523438 C 29.972656 21.824219 30.128906 22.125 30.289062 22.425781 C 31.875 25.429688 34.085938 27.269531 37.082031 28.75 C 36.667969 28.957031 36.667969 28.957031 36.28125 28.839844 C 32.65625 27.210938 30.933594 24.773438 28.957031 21.457031 C 28.820312 21.664062 28.683594 21.871094 28.542969 22.082031 C 27.628906 20.085938 26.726562 18.09375 25.910156 16.054688 C 24.707031 13.074219 23.253906 9.828125 20.417969 8.125 C 20.417969 15.414062 20.417969 22.699219 20.417969 30.207031 C 20.347656 30.207031 20.277344 30.207031 20.207031 30.207031 C 20.105469 28.042969 20.105469 28.042969 20 25.832031 C 19.929688 25.832031 19.863281 25.832031 19.792969 25.832031 C 19.792969 19.988281 19.792969 14.144531 19.792969 8.125 C 19.308594 8.261719 18.828125 8.398438 18.332031 8.542969 C 18.332031 8.402344 18.332031 8.265625 18.332031 8.125 C 18.128906 8.195312 17.921875 8.261719 17.707031 8.332031 C 17.640625 8.128906 17.570312 7.921875 17.5 7.707031 C 18.609375 6.953125 19.484375 6.613281 20.832031 6.875 Z M 20.832031 6.875 "/>
<path style=" stroke:none;fill-rule:nonzero;fill:rgb(25.882354%,53.725493%,24.313726%);fill-opacity:1;" d="M 20 8.125 C 20.070312 8.125 20.136719 8.125 20.207031 8.125 C 20.207031 15.414062 20.207031 22.699219 20.207031 30.207031 C 28.542969 30.058594 28.542969 30.058594 36.875 29.792969 C 36.722656 29.742188 36.570312 29.691406 36.410156 29.636719 C 34.820312 29.085938 33.746094 28.421875 32.5 27.292969 C 32.355469 27.167969 32.214844 27.042969 32.066406 26.914062 C 31.167969 26.089844 30.476562 25.164062 29.804688 24.152344 C 29.722656 24.035156 29.640625 23.914062 29.558594 23.789062 C 29.007812 22.921875 28.832031 22.25 28.75 21.25 C 29.4375 21.699219 29.730469 22.074219 30.050781 22.824219 C 31.289062 25.421875 33.355469 27.480469 36.042969 28.542969 C 36.683594 28.699219 37.1875 28.75 37.851562 28.75 C 38.542969 28.75 38.542969 28.75 38.957031 28.957031 C 38.957031 29.644531 38.957031 30.332031 38.957031 31.042969 C 36.652344 31.011719 34.347656 30.980469 32.042969 30.949219 C 31.875 30.949219 31.707031 30.945312 31.53125 30.945312 C 26.507812 30.875 21.480469 30.792969 16.457031 30.625 C 16.457031 30.554688 16.457031 30.488281 16.457031 30.417969 C 17.285156 30.277344 18.066406 30.195312 18.90625 30.203125 C 19.074219 30.203125 19.238281 30.203125 19.410156 30.203125 C 19.597656 30.207031 19.597656 30.207031 19.792969 30.207031 C 19.792969 29.941406 19.789062 29.675781 19.789062 29.402344 C 19.785156 26.777344 19.804688 24.15625 19.835938 21.53125 C 19.84375 21.140625 19.847656 20.75 19.851562 20.359375 C 19.863281 19.347656 19.875 18.335938 19.886719 17.324219 C 19.902344 16.285156 19.914062 15.246094 19.925781 14.207031 C 19.949219 12.179688 19.976562 10.152344 20 8.125 Z M 20 8.125 "/>
<path style=" stroke:none;fill-rule:nonzero;fill:rgb(24.313726%,40.784314%,25.098041%);fill-opacity:1;" d="M 10.632812 30.183594 C 10.875 30.183594 10.875 30.183594 11.125 30.183594 C 11.296875 30.1875 11.472656 30.1875 11.648438 30.1875 C 11.828125 30.1875 12.007812 30.1875 12.191406 30.1875 C 12.765625 30.191406 13.335938 30.191406 13.90625 30.195312 C 14.292969 30.195312 14.679688 30.199219 15.070312 30.199219 C 16.019531 30.199219 16.96875 30.203125 17.917969 30.207031 C 17.917969 30.277344 17.917969 30.347656 17.917969 30.417969 C 22.363281 30.585938 26.808594 30.679688 31.257812 30.734375 C 32.085938 30.746094 32.910156 30.757812 33.738281 30.769531 C 35.339844 30.792969 36.941406 30.8125 38.542969 30.832031 C 38.609375 30.972656 38.679688 31.109375 38.75 31.25 C 26.375 31.25 14 31.25 1.25 31.25 C 1.25 31.042969 1.25 30.835938 1.25 30.625 C 1.480469 30.621094 1.707031 30.613281 1.945312 30.609375 C 2.796875 30.589844 3.648438 30.570312 4.496094 30.546875 C 4.867188 30.539062 5.234375 30.53125 5.601562 30.519531 C 6.132812 30.507812 6.660156 30.496094 7.191406 30.484375 C 7.4375 30.476562 7.4375 30.476562 7.6875 30.472656 C 8.539062 30.453125 8.539062 30.453125 9.371094 30.3125 C 9.808594 30.203125 10.183594 30.183594 10.632812 30.183594 Z M 10.632812 30.183594 "/>
<path style=" stroke:none;fill-rule:nonzero;fill:rgb(23.529412%,54.11765%,21.568628%);fill-opacity:1;" d="M 20 8.125 C 20.070312 8.125 20.136719 8.125 20.207031 8.125 C 20.207031 15.414062 20.207031 22.699219 20.207031 30.207031 C 23.507812 30.207031 26.808594 30.207031 30.207031 30.207031 C 30.894531 30.277344 31.582031 30.347656 32.292969 30.417969 C 32.292969 30.484375 32.292969 30.554688 32.292969 30.625 C 27.046875 31.148438 21.714844 30.785156 16.457031 30.625 C 16.457031 30.554688 16.457031 30.488281 16.457031 30.417969 C 17.285156 30.277344 18.066406 30.195312 18.90625 30.203125 C 19.074219 30.203125 19.238281 30.203125 19.410156 30.203125 C 19.597656 30.207031 19.597656 30.207031 19.792969 30.207031 C 19.792969 29.941406 19.789062 29.675781 19.789062 29.402344 C 19.785156 26.777344 19.804688 24.15625 19.835938 21.53125 C 19.84375 21.140625 19.847656 20.75 19.851562 20.359375 C 19.863281 19.347656 19.875 18.335938 19.886719 17.324219 C 19.902344 16.285156 19.914062 15.246094 19.925781 14.207031 C 19.949219 12.179688 19.976562 10.152344 20 8.125 Z M 20 8.125 "/>
<path style=" stroke:none;fill-rule:nonzero;fill:rgb(23.921569%,50.196081%,22.745098%);fill-opacity:1;" d="M 5.207031 27.707031 C 5.207031 27.914062 5.207031 28.121094 5.207031 28.332031 C 5.003906 28.472656 4.796875 28.609375 4.582031 28.75 C 4.789062 28.886719 4.996094 29.023438 5.207031 29.167969 C 4.488281 29.476562 4.488281 29.476562 3.75 29.792969 C 7.050781 29.859375 10.351562 29.929688 13.75 30 C 13.75 30.070312 13.75 30.136719 13.75 30.207031 C 13.632812 30.214844 13.519531 30.21875 13.398438 30.222656 C 12.875 30.25 12.347656 30.273438 11.824219 30.300781 C 11.550781 30.3125 11.550781 30.3125 11.273438 30.324219 C 11.097656 30.332031 10.921875 30.339844 10.738281 30.351562 C 10.578125 30.359375 10.414062 30.367188 10.25 30.375 C 9.796875 30.402344 9.796875 30.402344 9.398438 30.523438 C 8.671875 30.691406 7.933594 30.648438 7.191406 30.644531 C 7.019531 30.644531 6.851562 30.644531 6.675781 30.644531 C 6.132812 30.644531 5.59375 30.640625 5.050781 30.636719 C 4.683594 30.636719 4.316406 30.636719 3.949219 30.636719 C 3.050781 30.632812 2.148438 30.628906 1.25 30.625 C 1.25 30.007812 1.25 29.386719 1.25 28.75 C 1.414062 28.726562 1.578125 28.703125 1.746094 28.679688 C 2.996094 28.492188 4.074219 28.273438 5.207031 27.707031 Z M 5.207031 27.707031 "/>
<path style=" stroke:none;fill-rule:nonzero;fill:rgb(29.019609%,60.000002%,25.490198%);fill-opacity:1;" d="M 19.375 7.292969 C 21.433594 7.417969 21.433594 7.417969 22.082031 8.125 C 22.082031 8.261719 22.082031 8.398438 22.082031 8.542969 C 20.886719 8.359375 20.886719 8.359375 20.417969 8.125 C 20.417969 15.414062 20.417969 22.699219 20.417969 30.207031 C 20.347656 30.207031 20.277344 30.207031 20.207031 30.207031 C 20.105469 28.042969 20.105469 28.042969 20 25.832031 C 19.929688 25.832031 19.863281 25.832031 19.792969 25.832031 C 19.792969 19.988281 19.792969 14.144531 19.792969 8.125 C 19.652344 8.054688 19.515625 7.988281 19.375 7.917969 C 19.375 7.710938 19.375 7.503906 19.375 7.292969 Z M 19.375 7.292969 "/>
<path style=" stroke:none;fill-rule:nonzero;fill:rgb(22.745098%,48.235294%,22.745098%);fill-opacity:1;" d="M 10.632812 30.183594 C 10.875 30.183594 10.875 30.183594 11.125 30.183594 C 11.296875 30.1875 11.472656 30.1875 11.648438 30.1875 C 11.828125 30.1875 12.007812 30.1875 12.191406 30.1875 C 12.765625 30.191406 13.335938 30.191406 13.90625 30.195312 C 14.292969 30.195312 14.679688 30.199219 15.070312 30.199219 C 16.019531 30.199219 16.96875 30.203125 17.917969 30.207031 C 17.917969 30.277344 17.917969 30.347656 17.917969 30.417969 C 17.433594 30.417969 16.953125 30.417969 16.457031 30.417969 C 16.457031 30.554688 16.457031 30.691406 16.457031 30.832031 C 13.363281 30.832031 10.269531 30.832031 7.082031 30.832031 C 7.082031 30.972656 7.082031 31.109375 7.082031 31.25 C 5.160156 31.25 3.234375 31.25 1.25 31.25 C 1.25 31.042969 1.25 30.835938 1.25 30.625 C 1.480469 30.621094 1.707031 30.613281 1.945312 30.609375 C 2.796875 30.589844 3.648438 30.570312 4.496094 30.546875 C 4.867188 30.539062 5.234375 30.53125 5.601562 30.519531 C 6.132812 30.507812 6.660156 30.496094 7.191406 30.484375 C 7.4375 30.476562 7.4375 30.476562 7.6875 30.472656 C 8.539062 30.453125 8.539062 30.453125 9.371094 30.3125 C 9.808594 30.203125 10.183594 30.183594 10.632812 30.183594 Z M 10.632812 30.183594 "/>
<path style=" stroke:none;fill-rule:nonzero;fill:rgb(30.588236%,52.941179%,26.274511%);fill-opacity:1;" d="M 20.832031 6.875 C 23.71875 8.035156 25.050781 11.289062 26.257812 13.914062 C 26.527344 14.5 26.8125 15.082031 27.105469 15.660156 C 27.4375 16.316406 27.71875 16.976562 27.96875 17.667969 C 28.039062 17.859375 28.109375 18.050781 28.179688 18.246094 C 28.332031 18.75 28.332031 18.75 28.332031 19.375 C 27.730469 18.859375 27.492188 18.328125 27.199219 17.597656 C 27.054688 17.257812 27.054688 17.257812 26.914062 16.90625 C 26.765625 16.542969 26.765625 16.542969 26.613281 16.171875 C 25.894531 14.425781 25.160156 12.730469 24.21875 11.089844 C 23.957031 10.625 23.957031 10.625 23.75 10 C 23.613281 10 23.476562 10 23.332031 10 C 22.707031 9.085938 22.707031 9.085938 22.707031 8.542969 C 22.597656 8.484375 22.484375 8.429688 22.371094 8.371094 C 22 8.1875 21.636719 7.996094 21.277344 7.800781 C 20.628906 7.5 20.078125 7.375 19.375 7.292969 C 19.375 7.429688 19.375 7.566406 19.375 7.707031 C 19.511719 7.777344 19.648438 7.847656 19.792969 7.917969 C 19.070312 8.226562 19.070312 8.226562 18.332031 8.542969 C 18.332031 8.402344 18.332031 8.265625 18.332031 8.125 C 18.128906 8.195312 17.921875 8.261719 17.707031 8.332031 C 17.640625 8.128906 17.570312 7.921875 17.5 7.707031 C 18.609375 6.953125 19.484375 6.613281 20.832031 6.875 Z M 20.832031 6.875 "/>
<path style=" stroke:none;fill-rule:nonzero;fill:rgb(26.666668%,58.039218%,24.313726%);fill-opacity:1;" d="M 28.75 21.25 C 29.4375 21.699219 29.730469 22.074219 30.050781 22.824219 C 31.328125 25.503906 33.359375 27.347656 36.042969 28.542969 C 36.042969 28.679688 36.042969 28.816406 36.042969 28.957031 C 36.246094 29.0625 36.246094 29.0625 36.457031 29.167969 C 36.457031 29.304688 36.457031 29.441406 36.457031 29.582031 C 34.820312 29.203125 33.738281 28.398438 32.5 27.292969 C 32.355469 27.167969 32.210938 27.042969 32.0625 26.914062 C 31.167969 26.089844 30.476562 25.164062 29.804688 24.152344 C 29.683594 23.972656 29.683594 23.972656 29.558594 23.789062 C 29.007812 22.921875 28.832031 22.25 28.75 21.25 Z M 28.75 21.25 "/>
<path style=" stroke:none;fill-rule:nonzero;fill:rgb(45.490196%,61.176473%,44.705883%);fill-opacity:1;" d="M 28.957031 20.832031 C 29.097656 20.832031 29.234375 20.832031 29.375 20.832031 C 29.476562 21.023438 29.582031 21.210938 29.6875 21.40625 C 31.558594 24.78125 33.601562 27.027344 37.082031 28.75 C 36.667969 28.957031 36.667969 28.957031 36.28125 28.839844 C 33.09375 27.40625 31.363281 25.417969 29.582031 22.5 C 29.460938 22.3125 29.339844 22.121094 29.214844 21.929688 C 28.957031 21.457031 28.957031 21.457031 28.957031 20.832031 Z M 28.957031 20.832031 "/>
<path style=" stroke:none;fill-rule:nonzero;fill:rgb(26.666668%,49.411765%,25.882354%);fill-opacity:1;" d="M 13.125 15.417969 C 13.261719 15.417969 13.398438 15.417969 13.542969 15.417969 C 13.472656 15.605469 13.402344 15.792969 13.332031 15.988281 C 13.085938 16.679688 13.085938 16.679688 13.125 17.5 C 13.261719 17.429688 13.398438 17.363281 13.542969 17.292969 C 13.257812 18.171875 12.9375 19.019531 12.578125 19.871094 C 12.484375 20.089844 12.390625 20.3125 12.296875 20.539062 C 12.226562 20.703125 12.15625 20.871094 12.082031 21.042969 C 11.738281 20.835938 11.394531 20.628906 11.042969 20.417969 C 11.675781 18.71875 12.351562 17.054688 13.125 15.417969 Z M 13.125 15.417969 "/>
<path style=" stroke:none;fill-rule:nonzero;fill:rgb(36.862746%,56.078434%,35.294119%);fill-opacity:1;" d="M 23.75 10 C 24.667969 10.304688 24.871094 11.019531 25.285156 11.835938 C 25.371094 11.996094 25.453125 12.15625 25.539062 12.324219 C 26.09375 13.40625 26.59375 14.503906 27.042969 15.636719 C 27.5 16.761719 28.027344 17.859375 28.542969 18.957031 C 28.402344 19.097656 28.265625 19.234375 28.125 19.375 C 27.488281 18.132812 26.929688 16.875 26.394531 15.585938 C 25.746094 14.050781 25.054688 12.574219 24.230469 11.125 C 23.957031 10.625 23.957031 10.625 23.75 10 Z M 23.75 10 "/>
<path style=" stroke:none;fill-rule:nonzero;fill:rgb(32.941177%,53.725493%,32.941177%);fill-opacity:1;" d="M 37.292969 28.75 C 38.488281 28.722656 38.488281 28.722656 38.957031 28.957031 C 38.957031 29.644531 38.957031 30.332031 38.957031 31.042969 C 35.796875 30.972656 32.632812 30.902344 29.375 30.832031 C 29.375 30.765625 29.375 30.695312 29.375 30.625 C 32.398438 30.625 35.425781 30.625 38.542969 30.625 C 38.542969 30.144531 38.542969 29.664062 38.542969 29.167969 C 38.128906 29.167969 37.714844 29.167969 37.292969 29.167969 C 37.292969 29.027344 37.292969 28.890625 37.292969 28.75 Z M 37.292969 28.75 "/>
<path style=" stroke:none;fill-rule:nonzero;fill:rgb(21.568628%,33.333334%,25.490198%);fill-opacity:1;" d="M 1.25 30.625 C 4.136719 30.726562 4.136719 30.726562 7.082031 30.832031 C 7.082031 30.972656 7.082031 31.109375 7.082031 31.25 C 5.160156 31.25 3.234375 31.25 1.25 31.25 C 1.25 31.042969 1.25 30.835938 1.25 30.625 Z M 1.25 30.625 "/>
<path style=" stroke:none;fill-rule:nonzero;fill:rgb(30.980393%,58.039218%,26.666668%);fill-opacity:1;" d="M 31.851562 29.960938 C 32.144531 29.960938 32.144531 29.960938 32.445312 29.964844 C 32.75 29.96875 32.75 29.96875 33.058594 29.972656 C 33.265625 29.976562 33.472656 29.976562 33.683594 29.980469 C 34.191406 29.984375 34.699219 29.992188 35.207031 30 C 34.644531 30.617188 34.644531 30.617188 34.09375 30.695312 C 33.90625 30.6875 33.722656 30.683594 33.527344 30.675781 C 33.226562 30.667969 33.226562 30.667969 32.917969 30.660156 C 32.011719 30.609375 31.109375 30.527344 30.207031 30.417969 C 30.886719 29.964844 31.070312 29.949219 31.851562 29.960938 Z M 31.851562 29.960938 "/>
<path style=" stroke:none;fill-rule:nonzero;fill:rgb(25.882354%,42.745098%,25.098041%);fill-opacity:1;" d="M 16.25 9.167969 C 16.386719 9.167969 16.523438 9.167969 16.667969 9.167969 C 16.375 10.15625 15.945312 10.996094 15.417969 11.875 C 15.3125 12.054688 15.207031 12.238281 15.097656 12.421875 C 14.988281 12.613281 14.878906 12.800781 14.765625 12.996094 C 14.609375 13.261719 14.609375 13.261719 14.453125 13.535156 C 14.167969 13.957031 14.167969 13.957031 13.75 14.167969 C 14.105469 13.222656 14.546875 12.332031 15 11.433594 C 15.074219 11.285156 15.148438 11.132812 15.226562 10.980469 C 15.296875 10.835938 15.367188 10.691406 15.441406 10.546875 C 15.507812 10.414062 15.574219 10.285156 15.640625 10.152344 C 15.832031 9.792969 15.832031 9.792969 16.25 9.167969 Z M 16.25 9.167969 "/>
<path style=" stroke:none;fill-rule:nonzero;fill:rgb(38.82353%,57.647061%,37.254903%);fill-opacity:1;" d="M 28.957031 20.832031 C 29.097656 20.832031 29.234375 20.832031 29.375 20.832031 C 29.484375 21.023438 29.589844 21.214844 29.703125 21.414062 C 30.46875 22.765625 31.246094 24.105469 32.082031 25.417969 C 31.878906 25.417969 31.671875 25.417969 31.457031 25.417969 C 31.117188 24.957031 30.816406 24.511719 30.519531 24.023438 C 30.398438 23.828125 30.398438 23.828125 30.273438 23.628906 C 30.113281 23.371094 29.957031 23.113281 29.800781 22.855469 C 29.609375 22.542969 29.410156 22.234375 29.210938 21.921875 C 28.957031 21.457031 28.957031 21.457031 28.957031 20.832031 Z M 28.957031 20.832031 "/>
<path style=" stroke:none;fill-rule:nonzero;fill:rgb(27.843139%,50.588238%,27.450982%);fill-opacity:1;" d="M 12.292969 17.292969 C 12.359375 17.292969 12.429688 17.292969 12.5 17.292969 C 12.292969 19.078125 12.292969 19.078125 12.082031 19.792969 C 12.222656 19.859375 12.359375 19.929688 12.5 20 C 12.363281 20.34375 12.226562 20.6875 12.082031 21.042969 C 11.738281 20.835938 11.394531 20.628906 11.042969 20.417969 C 11.210938 19.972656 11.378906 19.53125 11.550781 19.089844 C 11.644531 18.84375 11.738281 18.59375 11.835938 18.339844 C 12.082031 17.707031 12.082031 17.707031 12.292969 17.292969 Z M 12.292969 17.292969 "/>
<path style=" stroke:none;fill-rule:nonzero;fill:rgb(31.764707%,54.509807%,30.19608%);fill-opacity:1;" d="M 21.667969 7.5 C 22.371094 7.800781 22.785156 8.171875 23.28125 8.75 C 23.472656 8.96875 23.472656 8.96875 23.667969 9.191406 C 23.957031 9.582031 23.957031 9.582031 23.957031 10 C 23.753906 10 23.546875 10 23.332031 10 C 22.707031 9.121094 22.707031 9.121094 22.707031 8.542969 C 22.574219 8.484375 22.441406 8.429688 22.304688 8.371094 C 21.875 8.125 21.875 8.125 21.667969 7.5 Z M 21.667969 7.5 "/>
<path style=" stroke:none;fill-rule:nonzero;fill:rgb(27.843139%,43.921569%,27.450982%);fill-opacity:1;" d="M 8.125 25.207031 C 8.261719 25.207031 8.398438 25.207031 8.542969 25.207031 C 8.472656 25.484375 8.402344 25.757812 8.332031 26.042969 C 8.195312 26.042969 8.058594 26.042969 7.917969 26.042969 C 7.863281 26.171875 7.8125 26.300781 7.761719 26.433594 C 7.457031 26.949219 7.210938 27.074219 6.667969 27.292969 C 6.804688 26.949219 6.941406 26.605469 7.082031 26.25 C 7.222656 26.25 7.359375 26.25 7.5 26.25 C 7.5625 26.117188 7.628906 25.984375 7.695312 25.847656 C 7.917969 25.417969 7.917969 25.417969 8.125 25.207031 Z M 8.125 25.207031 "/>
<path style=" stroke:none;fill-rule:nonzero;fill:rgb(22.745098%,37.254903%,22.352941%);fill-opacity:1;" d="M 11.042969 20.417969 C 11.183594 20.753906 11.183594 20.753906 11.25 21.25 C 10.949219 21.925781 10.949219 21.925781 10.625 22.5 C 10.488281 22.5 10.351562 22.5 10.207031 22.5 C 10.207031 22.636719 10.207031 22.773438 10.207031 22.917969 C 10.070312 22.847656 9.933594 22.777344 9.792969 22.707031 C 9.960938 22.363281 10.128906 22.023438 10.300781 21.679688 C 10.394531 21.488281 10.488281 21.296875 10.585938 21.101562 C 10.832031 20.625 10.832031 20.625 11.042969 20.417969 Z M 11.042969 20.417969 "/>
<path style=" stroke:none;fill-rule:nonzero;fill:rgb(44.705883%,61.176473%,43.137255%);fill-opacity:1;" d="M 27.082031 16.667969 C 27.953125 17.386719 28.191406 18.121094 28.542969 19.167969 C 28.335938 19.167969 28.128906 19.167969 27.917969 19.167969 C 27.777344 18.828125 27.636719 18.488281 27.5 18.152344 C 27.421875 17.960938 27.34375 17.773438 27.265625 17.578125 C 27.082031 17.082031 27.082031 17.082031 27.082031 16.667969 Z M 27.082031 16.667969 "/>
<path style=" stroke:none;fill-rule:nonzero;fill:rgb(45.490196%,60.000002%,43.529412%);fill-opacity:1;" d="M 28.957031 20.832031 C 29.097656 20.832031 29.234375 20.832031 29.375 20.832031 C 29.554688 21.132812 29.734375 21.429688 29.910156 21.730469 C 30.007812 21.898438 30.105469 22.066406 30.210938 22.238281 C 30.417969 22.707031 30.417969 22.707031 30.207031 23.332031 C 28.957031 21.726562 28.957031 21.726562 28.957031 20.832031 Z M 28.957031 20.832031 "/>
<path style=" stroke:none;fill-rule:nonzero;fill:rgb(41.568628%,61.960787%,40.784314%);fill-opacity:1;" d="M 31.875 25.417969 C 32.765625 25.746094 33.179688 26.355469 33.75 27.082031 C 33.125 27.082031 33.125 27.082031 32.789062 26.824219 C 32.683594 26.710938 32.574219 26.601562 32.460938 26.484375 C 32.351562 26.375 32.238281 26.261719 32.125 26.148438 C 31.875 25.832031 31.875 25.832031 31.875 25.417969 Z M 31.875 25.417969 "/>
<path style=" stroke:none;fill-rule:nonzero;fill:rgb(28.235295%,43.921569%,28.235295%);fill-opacity:1;" d="M 9.792969 22.917969 C 9.929688 22.984375 10.066406 23.054688 10.207031 23.125 C 9.863281 23.675781 9.519531 24.226562 9.167969 24.792969 C 9.097656 24.515625 9.027344 24.242188 8.957031 23.957031 C 9.363281 23.386719 9.363281 23.386719 9.792969 22.917969 Z M 9.792969 22.917969 "/>
<path style=" stroke:none;fill-rule:nonzero;fill:rgb(31.37255%,47.843137%,30.980393%);fill-opacity:1;" d="M 1.25 28.75 C 1.953125 28.722656 1.953125 28.722656 2.707031 28.75 C 2.847656 28.886719 2.984375 29.023438 3.125 29.167969 C 2.195312 29.269531 2.195312 29.269531 1.25 29.375 C 1.25 29.167969 1.25 28.960938 1.25 28.75 Z M 1.25 28.75 "/>
<path style=" stroke:none;fill-rule:nonzero;fill:rgb(21.960784%,50.980395%,20.784314%);fill-opacity:1;" d="M 12.5 18.332031 C 12.570312 18.332031 12.636719 18.332031 12.707031 18.332031 C 12.707031 18.746094 12.707031 19.160156 12.707031 19.582031 C 12.296875 19.789062 12.296875 19.789062 11.875 20 C 11.988281 19.296875 12.09375 18.941406 12.5 18.332031 Z M 12.5 18.332031 "/>
<path style=" stroke:none;fill-rule:nonzero;fill:rgb(39.607844%,54.901963%,38.82353%);fill-opacity:1;" d="M 12.292969 17.292969 C 12.359375 17.292969 12.429688 17.292969 12.5 17.292969 C 12.34375 18.90625 12.34375 18.90625 11.875 19.375 C 11.585938 18.503906 11.910156 18.097656 12.292969 17.292969 Z M 12.292969 17.292969 "/>
<path style=" stroke:none;fill-rule:nonzero;fill:rgb(36.078432%,64.705884%,32.941177%);fill-opacity:1;" d="M 8.957031 25.832031 C 9.027344 26.039062 9.097656 26.246094 9.167969 26.457031 C 8.890625 26.734375 8.617188 27.007812 8.332031 27.292969 C 8.128906 27.222656 7.921875 27.152344 7.707031 27.082031 C 8.121094 26.671875 8.535156 26.257812 8.957031 25.832031 Z M 8.957031 25.832031 "/>
<path style=" stroke:none;fill-rule:nonzero;fill:rgb(21.568628%,41.568628%,21.176471%);fill-opacity:1;" d="M 9.582031 23.957031 C 9.722656 24.164062 9.859375 24.371094 10 24.582031 C 9.726562 24.652344 9.449219 24.722656 9.167969 24.792969 C 9.304688 24.515625 9.441406 24.242188 9.582031 23.957031 Z M 8.75 24.375 C 8.886719 24.582031 9.023438 24.789062 9.167969 25 C 8.824219 25.070312 8.480469 25.136719 8.125 25.207031 C 8.332031 24.933594 8.539062 24.660156 8.75 24.375 Z M 8.75 24.375 "/>
<path style=" stroke:none;fill-rule:nonzero;fill:rgb(35.686275%,50.980395%,33.725491%);fill-opacity:1;" d="M 28.332031 19.167969 C 29.011719 19.503906 29.105469 20.15625 29.375 20.832031 C 29.167969 20.832031 28.960938 20.832031 28.75 20.832031 C 28.542969 20.351562 28.335938 19.871094 28.125 19.375 C 28.195312 19.304688 28.261719 19.238281 28.332031 19.167969 Z M 28.332031 19.167969 "/>
<path style=" stroke:none;fill-rule:nonzero;fill:rgb(36.078432%,50.588238%,35.686275%);fill-opacity:1;" d="M 5.207031 27.707031 C 5.207031 27.914062 5.207031 28.121094 5.207031 28.332031 C 4.726562 28.472656 4.246094 28.609375 3.75 28.75 C 3.75 28.613281 3.75 28.476562 3.75 28.332031 C 4.230469 28.128906 4.710938 27.921875 5.207031 27.707031 Z M 5.207031 27.707031 "/>
</g>
</svg>
