<?xml version="1.0" encoding="UTF-8"?>
<svg version="1.1" xmlns="http://www.w3.org/2000/svg" width="192" height="192">
<path d="M0 0 C14.55623059 5.86030063 20.94274533 22.71017986 27.00732422 35.89477539 C28.01101622 38.02336273 29.06673492 40.11890531 30.13671875 42.21484375 C31.59825629 45.11232149 32.76279506 47.96489267 33.75 51.0625 C36.14334226 57.86413276 39.58248015 64.0329796 43.07324219 70.31835938 C43.86168771 71.74902659 44.6249982 73.1934994 45.3828125 74.640625 C52.5270099 88.17201875 62.63507964 98.35066521 77 104 C80.31567449 104.90151672 83.59298218 105.5628163 87 106 C87.02688151 107.64574566 87.04634123 109.29161413 87.0625 110.9375 C87.07410156 111.85402344 87.08570313 112.77054687 87.09765625 113.71484375 C87 116 87 116 86 117 C83.67232986 117.0976134 81.37437981 117.12997765 79.04624939 117.12025452 C78.31035554 117.12110894 77.57446169 117.12196337 76.81626803 117.12284368 C74.33183354 117.12450067 71.84746545 117.11897356 69.36303711 117.11352539 C67.58951316 117.11324354 65.81598909 117.11340121 64.04246521 117.1139679 C59.21208983 117.11425595 54.38173906 117.1083579 49.55136943 117.10139394 C44.50914683 117.09516176 39.46692373 117.09455671 34.42469788 117.09336853 C24.86949773 117.09025481 15.31430897 117.08204088 5.75911385 117.07201904 C-5.11615433 117.06085916 -15.99142305 117.05534777 -26.86669552 117.05032361 C-49.24447 117.0398583 -71.62223436 117.02225807 -94 117 C-94 113.04 -94 109.08 -94 105 C-91.40125 104.690625 -91.40125 104.690625 -88.75 104.375 C-82.67648877 103.38796437 -77.8760457 101.26202217 -72.49609375 98.33984375 C-70 97 -70 97 -67 96 C-66.505 94.515 -66.505 94.515 -66 93 C-65.34 93 -64.68 93 -64 93 C-63.7525 92.443125 -63.505 91.88625 -63.25 91.3125 C-62 89 -62 89 -60.1875 86.75 C-55.51384358 80.87454622 -52.04201241 74.40743826 -48.875 67.625 C-48.49666016 66.82336426 -48.11832031 66.02172852 -47.72851562 65.19580078 C-44.45502945 58.17000813 -41.47539286 51.03088989 -38.5 43.875 C-26.99776192 16.31450756 -26.99776192 16.31450756 -18 6 C-17.34 6 -16.68 6 -16 6 C-16 5.34 -16 4.68 -16 4 C-10.67033058 0.37128891 -6.47136132 -1.26297725 0 0 Z " fill="#5FB551" transform="translate(100,33)"/>
<path d="M0 0 C9.22308315 3.68923326 14.71169974 11.71260542 18.875 20.4375 C19.21450684 21.13415771 19.55401367 21.83081543 19.90380859 22.54858398 C20.94523909 24.6946868 21.97349628 26.84672479 23 29 C23.31259766 29.64743164 23.62519531 30.29486328 23.94726562 30.96191406 C27.17990641 37.65908743 30.17032406 44.35551013 32.8125 51.3125 C37.89065024 64.20423074 44.61665322 76.72957212 54 87 C54.57234375 87.64066406 55.1446875 88.28132813 55.734375 88.94140625 C63.58646882 97.27975359 72.69638688 102.17683659 84 104 C84 104.33 84 104.66 84 105 C55.97730002 106.10515368 28.07287279 106 0 106 C0 71.02 0 36.04 0 0 Z " fill="#84D763" transform="translate(98,39)"/>
<path d="M0 0 C-0.6181353 3.32514161 -1.1039839 4.11159248 -3.5625 6.75 C-12.13347526 16.51363456 -16.42676439 30.19640812 -21.5 42 C-43.26072236 92.61115604 -43.26072236 92.61115604 -70 104 C-68.04670776 104.03758423 -68.04670776 104.03758423 -66.05395508 104.07592773 C-41.69573403 104.54799778 -17.34451534 105.03602853 7 106 C6.99746216 104.72357132 6.99492432 103.44714264 6.99230957 102.1320343 C6.97507616 89.53804755 7.06123437 76.94836526 7.21875 64.35546875 C7.24127981 62.47976307 7.26369773 60.60405605 7.28601074 58.72834778 C7.34408859 53.87064243 7.40365153 49.01295648 7.46356201 44.15527344 C7.52481143 39.16667783 7.58460354 34.17806476 7.64453125 29.18945312 C7.76162311 19.45961814 7.88028944 9.72980309 8 0 C8.33 0 8.66 0 9 0 C9 34.98 9 69.96 9 106 C49.01191357 105.28467884 49.01191357 105.28467884 89 104 C88.26612061 103.75475586 87.53224121 103.50951172 86.77612305 103.25683594 C79.14536894 100.61374618 73.97768796 97.41790447 68 92 C67.31164062 91.40445313 66.62328125 90.80890625 65.9140625 90.1953125 C61.60744581 86.22913982 58.28065429 81.79579222 55.0625 76.9375 C54.67247803 76.35983887 54.28245605 75.78217773 53.88061523 75.18701172 C51.23391613 71.02614354 50.38577688 67.80690235 50 63 C53.30688309 65.16058958 54.69816765 66.95506884 56.25 70.5625 C62.19421533 83.03262757 72.11466716 92.91313125 85 98 C88.07217682 98.7563718 90.49129227 99 93.6875 99 C97 99 97 99 99 100 C99.02688151 101.64574566 99.04634123 103.29161413 99.0625 104.9375 C99.07410156 105.85402344 99.08570313 106.77054687 99.09765625 107.71484375 C99 110 99 110 98 111 C95.67232986 111.0976134 93.37437981 111.12997765 91.04624939 111.12025452 C90.31035554 111.12110894 89.57446169 111.12196337 88.81626803 111.12284368 C86.33183354 111.12450067 83.84746545 111.11897356 81.36303711 111.11352539 C79.58951316 111.11324354 77.81598909 111.11340121 76.04246521 111.1139679 C71.21208983 111.11425595 66.38173906 111.1083579 61.55136943 111.10139394 C56.50914683 111.09516176 51.46692373 111.09455671 46.42469788 111.09336853 C36.86949773 111.09025481 27.31430897 111.08204088 17.75911385 111.07201904 C6.88384567 111.06085916 -3.99142305 111.05534777 -14.86669552 111.05032361 C-37.24447 111.0398583 -59.62223436 111.02225807 -82 111 C-82 107.04 -82 103.08 -82 99 C-79.40125 98.690625 -79.40125 98.690625 -76.75 98.375 C-70.67648877 97.38796437 -65.8760457 95.26202217 -60.49609375 92.33984375 C-58 91 -58 91 -55 90 C-54.505 88.515 -54.505 88.515 -54 87 C-53.34 87 -52.68 87 -52 87 C-51.7525 86.443125 -51.505 85.88625 -51.25 85.3125 C-50 83 -50 83 -48.1875 80.75 C-43.51384358 74.87454622 -40.04201241 68.40743826 -36.875 61.625 C-36.49666016 60.82336426 -36.11832031 60.02172852 -35.72851562 59.19580078 C-32.45502945 52.17000813 -29.47539286 45.03088989 -26.5 37.875 C-9.50321579 -2.85096474 -9.50321579 -2.85096474 0 0 Z " fill="#3B7D38" transform="translate(88,39)"/>
<path d="M0 0 C14.55623059 5.86030063 20.94274533 22.71017986 27.00732422 35.89477539 C28.01101622 38.02336273 29.06673492 40.11890531 30.13671875 42.21484375 C31.59825629 45.11232149 32.76279506 47.96489267 33.75 51.0625 C36.14334226 57.86413276 39.58248015 64.0329796 43.07324219 70.31835938 C43.86168771 71.74902659 44.6249982 73.1934994 45.3828125 74.640625 C52.99644806 89.06115328 63.61483827 97.88523685 78 105 C76 106 76 106 74.15234375 105.43359375 C56.75222285 97.60814255 48.48555934 85.90932421 39 70 C38.34 70.99 37.68 71.98 37 73 C32.62538023 63.41885086 28.28763155 53.84294674 24.375 44.0625 C18.5988779 29.75694876 11.61628506 14.16977103 -2 6 C-2 40.98 -2 75.96 -2 112 C-2.33 112 -2.66 112 -3 112 C-3.495 101.605 -3.495 101.605 -4 91 C-4.33 91 -4.66 91 -5 91 C-5 62.95 -5 34.9 -5 6 C-7.31 6.66 -9.62 7.32 -12 8 C-12 7.34 -12 6.68 -12 6 C-12.99 6.33 -13.98 6.66 -15 7 C-15.33 6.01 -15.66 5.02 -16 4 C-10.67033058 0.37128891 -6.47136132 -1.26297725 0 0 Z " fill="#469B3F" transform="translate(100,33)"/>
<path d="M0 0 C0.33 0 0.66 0 1 0 C1 34.98 1 69.96 1 106 C41.01191357 105.28467884 41.01191357 105.28467884 81 104 C80.26612061 103.75475586 79.53224121 103.50951172 78.77612305 103.25683594 C71.14536894 100.61374618 65.97768796 97.41790447 60 92 C59.31164062 91.40445313 58.62328125 90.80890625 57.9140625 90.1953125 C53.60744581 86.22913982 50.28065429 81.79579222 47.0625 76.9375 C46.67247803 76.35983887 46.28245605 75.78217773 45.88061523 75.18701172 C43.23391613 71.02614354 42.38577688 67.80690235 42 63 C45.30688309 65.16058958 46.69816765 66.95506884 48.25 70.5625 C54.19421533 83.03262757 64.11466716 92.91313125 77 98 C80.07217682 98.7563718 82.49129227 99 85.6875 99 C89 99 89 99 91 100 C91 103.3 91 106.6 91 110 C79.9374376 109.85876053 68.87494337 109.71276081 57.8125 109.5625 C57.00088787 109.55147877 56.18927574 109.54045753 55.35306931 109.52910233 C31.22972038 109.2001116 7.11304223 108.80662107 -17 108 C-17 107.67 -17 107.34 -17 107 C-13.029365 106.32414723 -9.27741892 105.93908063 -5.24609375 105.96875 C-4.44743896 105.97326172 -3.64878418 105.97777344 -2.82592773 105.98242188 C-1.92209351 105.99112305 -1.92209351 105.99112305 -1 106 C-1.00253784 104.72357132 -1.00507568 103.44714264 -1.00769043 102.1320343 C-1.02492384 89.53804755 -0.93876563 76.94836526 -0.78125 64.35546875 C-0.75872019 62.47976307 -0.73630227 60.60405605 -0.71398926 58.72834778 C-0.65591141 53.87064243 -0.59634847 49.01295648 -0.53643799 44.15527344 C-0.47518857 39.16667783 -0.41539646 34.17806476 -0.35546875 29.18945312 C-0.23837689 19.45961814 -0.11971056 9.72980309 0 0 Z " fill="#42893E" transform="translate(96,39)"/>
<path d="M0 0 C1.1707608 0.0001133 1.1707608 0.0001133 2.36517334 0.00022888 C3.19760559 0.00539017 4.03003784 0.01055145 4.88769531 0.01586914 C5.74768127 0.01728409 6.60766724 0.01869904 7.49371338 0.02015686 C10.2344514 0.02574442 12.97510707 0.03829465 15.71582031 0.05102539 C17.57649621 0.056042 19.4371734 0.06060462 21.29785156 0.06469727 C25.85387277 0.07570978 30.40983259 0.09296588 34.96582031 0.11352539 C34.96582031 0.44352539 34.96582031 0.77352539 34.96582031 1.11352539 C56.31306341 1.926262 77.65136231 2.37170758 99.01153564 2.64575195 C102.97549379 2.69727105 106.93940404 2.75225459 110.90332031 2.80688477 C118.59077905 2.91235259 126.27827941 3.01420579 133.96582031 3.11352539 C134.29582031 3.77352539 134.62582031 4.43352539 134.96582031 5.11352539 C75.56582031 5.11352539 16.16582031 5.11352539 -45.03417969 5.11352539 C-45.03417969 4.12352539 -45.03417969 3.13352539 -45.03417969 2.11352539 C-43.93428711 2.08846924 -42.83439453 2.06341309 -41.70117188 2.03759766 C-37.61593203 1.94334333 -33.53085507 1.84316674 -29.44580078 1.74121094 C-27.67858697 1.69793025 -25.91133319 1.65625034 -24.14404297 1.61621094 C-21.60209109 1.55834188 -19.0603391 1.49469558 -16.51855469 1.42993164 C-15.33552765 1.4048629 -15.33552765 1.4048629 -14.12860107 1.37928772 C-10.05049014 1.29704988 -10.05049014 1.29704988 -6.0456543 0.60778809 C-3.94947273 0.09271107 -2.15497297 -0.00699667 0 0 Z " fill="#3E6840" transform="translate(51.0341796875,144.886474609375)"/>
<path d="M0 0 C0.33 0 0.66 0 1 0 C1 34.98 1 69.96 1 106 C16.84 106 32.68 106 49 106 C52.3 106.33 55.6 106.66 59 107 C59 107.33 59 107.66 59 108 C33.83247416 110.52125482 8.2332517 108.77217406 -17 108 C-17 107.67 -17 107.34 -17 107 C-13.029365 106.32414723 -9.27741892 105.93908063 -5.24609375 105.96875 C-4.44743896 105.97326172 -3.64878418 105.97777344 -2.82592773 105.98242188 C-1.92209351 105.99112305 -1.92209351 105.99112305 -1 106 C-1.00253784 104.72357132 -1.00507568 103.44714264 -1.00769043 102.1320343 C-1.02492384 89.53804755 -0.93876563 76.94836526 -0.78125 64.35546875 C-0.75872019 62.47976307 -0.73630227 60.60405605 -0.71398926 58.72834778 C-0.65591141 53.87064243 -0.59634847 49.01295648 -0.53643799 44.15527344 C-0.47518857 39.16667783 -0.41539646 34.17806476 -0.35546875 29.18945312 C-0.23837689 19.45961814 -0.11971056 9.72980309 0 0 Z " fill="#3C8A37" transform="translate(96,39)"/>
<path d="M0 0 C0 0.99 0 1.98 0 3 C-0.99 3.66 -1.98 4.32 -3 5 C-2.01 5.66 -1.02 6.32 0 7 C-3.465 8.485 -3.465 8.485 -7 10 C8.84 10.33 24.68 10.66 41 11 C41 11.33 41 11.66 41 12 C40.44538086 12.02505615 39.89076172 12.0501123 39.31933594 12.07592773 C36.79601157 12.19227927 34.27302464 12.31482754 31.75 12.4375 C30.44095703 12.49647461 30.44095703 12.49647461 29.10546875 12.55664062 C28.26113281 12.59853516 27.41679688 12.64042969 26.546875 12.68359375 C25.77182617 12.72025146 24.99677734 12.75690918 24.19824219 12.79467773 C22.02979857 12.93562408 22.02979857 12.93562408 20.10327148 13.5057373 C16.62016711 14.32425672 13.07468851 14.12094736 9.515625 14.09765625 C8.70003113 14.0962413 7.88443726 14.09482635 7.04412842 14.09336853 C4.44604788 14.08778303 1.84805437 14.07523321 -0.75 14.0625 C-2.51432167 14.05748312 -4.27864469 14.05292054 -6.04296875 14.04882812 C-10.36201256 14.03781835 -14.68099154 14.02056369 -19 14 C-19 11.03 -19 8.06 -19 5 C-18.21496094 4.89042969 -17.42992187 4.78085938 -16.62109375 4.66796875 C-10.61800285 3.7619808 -5.43846574 2.71923287 0 0 Z " fill="#3D803A" transform="translate(25,133)"/>
<path d="M0 0 C9.88344059 0.61243542 9.88344059 0.61243542 13 4 C13 4.66 13 5.32 13 6 C7.25 5.125 7.25 5.125 5 4 C5 38.98 5 73.96 5 110 C4.67 110 4.34 110 4 110 C3.505 99.605 3.505 99.605 3 89 C2.67 89 2.34 89 2 89 C2 60.95 2 32.9 2 4 C1.34 3.67 0.68 3.34 0 3 C0 2.01 0 1.02 0 0 Z " fill="#4A9941" transform="translate(93,35)"/>
<path d="M0 0 C1.1707608 0.0001133 1.1707608 0.0001133 2.36517334 0.00022888 C3.19760559 0.00539017 4.03003784 0.01055145 4.88769531 0.01586914 C5.74768127 0.01728409 6.60766724 0.01869904 7.49371338 0.02015686 C10.2344514 0.02574442 12.97510707 0.03829465 15.71582031 0.05102539 C17.57649621 0.056042 19.4371734 0.06060462 21.29785156 0.06469727 C25.85387277 0.07570978 30.40983259 0.09296588 34.96582031 0.11352539 C34.96582031 0.44352539 34.96582031 0.77352539 34.96582031 1.11352539 C32.65582031 1.11352539 30.34582031 1.11352539 27.96582031 1.11352539 C27.96582031 1.77352539 27.96582031 2.43352539 27.96582031 3.11352539 C13.11582031 3.11352539 -1.73417969 3.11352539 -17.03417969 3.11352539 C-17.03417969 3.77352539 -17.03417969 4.43352539 -17.03417969 5.11352539 C-26.27417969 5.11352539 -35.51417969 5.11352539 -45.03417969 5.11352539 C-45.03417969 4.12352539 -45.03417969 3.13352539 -45.03417969 2.11352539 C-43.93428711 2.08846924 -42.83439453 2.06341309 -41.70117188 2.03759766 C-37.61593203 1.94334333 -33.53085507 1.84316674 -29.44580078 1.74121094 C-27.67858697 1.69793025 -25.91133319 1.65625034 -24.14404297 1.61621094 C-21.60209109 1.55834188 -19.0603391 1.49469558 -16.51855469 1.42993164 C-15.33552765 1.4048629 -15.33552765 1.4048629 -14.12860107 1.37928772 C-10.05049014 1.29704988 -10.05049014 1.29704988 -6.0456543 0.60778809 C-3.94947273 0.09271107 -2.15497297 -0.00699667 0 0 Z " fill="#3A7B3A" transform="translate(51.0341796875,144.886474609375)"/>
<path d="M0 0 C13.84330197 5.57327741 20.23926965 21.18269321 26.03515625 33.78125 C27.33619858 36.60800087 28.69404606 39.39475653 30.10546875 42.16796875 C31.69438914 45.32097659 33.0511463 48.4871082 34.25 51.8125 C34.58515625 52.72644531 34.9203125 53.64039063 35.265625 54.58203125 C36 57 36 57 36 60 C33.1106478 57.52236477 31.96305739 54.9794207 30.546875 51.4765625 C29.86987549 49.82926147 29.86987549 49.82926147 29.17919922 48.14868164 C28.47174561 46.40445923 28.47174561 46.40445923 27.75 44.625 C24.28504431 36.23498042 20.77058064 28.0985936 16.2421875 20.22265625 C15 18 15 18 14 15 C13.34 15 12.68 15 12 15 C9 10.61538462 9 10.61538462 9 8 C8.46375 7.731875 7.9275 7.46375 7.375 7.1875 C5.6080189 6.30400945 3.8607622 5.38084902 2.125 4.4375 C-0.98467949 3.00704743 -3.61772053 2.40265232 -7 2 C-7 2.66 -7 3.32 -7 4 C-6.34 4.33 -5.68 4.66 -5 5 C-8.465 6.485 -8.465 6.485 -12 8 C-12 7.34 -12 6.68 -12 6 C-12.99 6.33 -13.98 6.66 -15 7 C-15.33 6.01 -15.66 5.02 -16 4 C-10.67033058 0.37128891 -6.47136132 -1.26297725 0 0 Z " fill="#4E8743" transform="translate(100,33)"/>
<path d="M0 0 C3.30688309 2.16058958 4.69816765 3.95506884 6.25 7.5625 C12.37819039 20.41858138 22.13199383 29.27795627 35 35 C35 35.66 35 36.32 35 37 C35.99 37.495 35.99 37.495 37 38 C37 38.66 37 39.32 37 40 C29.14418773 38.17836237 23.94646193 34.31899435 18 29 C17.3090625 28.40316406 16.618125 27.80632812 15.90625 27.19140625 C11.60553321 23.22348303 8.27907725 18.79341145 5.0625 13.9375 C4.47746704 13.0710083 4.47746704 13.0710083 3.88061523 12.18701172 C1.23391613 8.02614354 0.38577688 4.80690235 0 0 Z " fill="#44943E" transform="translate(138,102)"/>
<path d="M0 0 C0.66 0 1.32 0 2 0 C2.49628906 0.90621094 2.99257812 1.81242187 3.50390625 2.74609375 C12.48909195 18.95108011 22.2810269 29.73095612 39 38 C37 39 37 39 35.15234375 38.43359375 C19.8485265 31.55092462 11.54445798 22.00893692 3 8 C2.41734375 7.09507813 1.8346875 6.19015625 1.234375 5.2578125 C0 3 0 3 0 0 Z " fill="#749C72" transform="translate(139,100)"/>
<path d="M0 0 C0.66 0 1.32 0 2 0 C1.67 0.9075 1.34 1.815 1 2.75 C-0.19605723 6.07045807 -0.19605723 6.07045807 0 10 C0.66 9.67 1.32 9.34 2 9 C0.64474464 13.21775732 -0.90200114 17.29421322 -2.625 21.375 C-3.07101563 22.43460938 -3.51703125 23.49421875 -3.9765625 24.5859375 C-4.31429687 25.38257812 -4.65203125 26.17921875 -5 27 C-6.65 26.01 -8.3 25.02 -10 24 C-6.95613443 15.85280238 -3.70597097 7.86927453 0 0 Z " fill="#447E42" transform="translate(63,74)"/>
<path d="M0 0 C4.39934812 1.46644937 5.38170235 4.89522953 7.375 8.8125 C7.77565674 9.5849707 8.17631348 10.35744141 8.58911133 11.15332031 C11.25536171 16.35929448 13.644787 21.62498826 15.8046875 27.0625 C18.00253564 32.46374772 20.52291368 37.72235904 23 43 C22.34 43.66 21.68 44.32 21 45 C17.93451978 39.04203506 15.26467761 32.99479253 12.6875 26.8125 C9.57852637 19.43709375 6.26239114 12.3656066 2.3125 5.3984375 C1 3 1 3 0 0 Z " fill="#5E8F5A" transform="translate(114,48)"/>
<path d="M0 0 C5.75 -0.125 5.75 -0.125 8 1 C8 4.3 8 7.6 8 11 C-7.18 10.67 -22.36 10.34 -38 10 C-38 9.67 -38 9.34 -38 9 C-23.48 9 -8.96 9 6 9 C6 6.69 6 4.38 6 2 C4.02 2 2.04 2 0 2 C0 1.34 0 0.68 0 0 Z " fill="#548954" transform="translate(179,138)"/>
<path d="M0 0 C13.86 0.495 13.86 0.495 28 1 C28 1.66 28 2.32 28 3 C18.76 3 9.52 3 0 3 C0 2.01 0 1.02 0 0 Z " fill="#375541" transform="translate(6,147)"/>
<path d="M0 0 C1.40668945 0.00966797 1.40668945 0.00966797 2.84179688 0.01953125 C4.30649414 0.04466797 4.30649414 0.04466797 5.80078125 0.0703125 C6.78884766 0.07933594 7.77691406 0.08835938 8.79492188 0.09765625 C11.2346189 0.1212282 13.67382822 0.15413228 16.11328125 0.1953125 C13.40673828 3.15429688 13.40673828 3.15429688 10.765625 3.5234375 C9.86972656 3.49765625 8.97382813 3.471875 8.05078125 3.4453125 C6.60058594 3.40664062 6.60058594 3.40664062 5.12109375 3.3671875 C0.76710679 3.11838825 -3.55778298 2.72117021 -7.88671875 2.1953125 C-4.63281887 0.02604591 -3.75275918 -0.04548799 0 0 Z " fill="#4F9444" transform="translate(152.88671875,143.8046875)"/>
<path d="M0 0 C0.66 0 1.32 0 2 0 C0.60782564 4.75659574 -1.45686152 8.78331233 -4 13 C-4.50273438 13.86882813 -5.00546875 14.73765625 -5.5234375 15.6328125 C-6.05195312 16.53773437 -6.58046875 17.44265625 -7.125 18.375 C-7.87136719 19.65503906 -7.87136719 19.65503906 -8.6328125 20.9609375 C-10 23 -10 23 -12 24 C-10.29465708 19.47018288 -8.17111788 15.19363666 -6 10.875 C-5.64421875 10.15957031 -5.2884375 9.44414063 -4.921875 8.70703125 C-4.57640625 8.01738281 -4.2309375 7.32773437 -3.875 6.6171875 C-3.56304687 5.99440918 -3.25109375 5.37163086 -2.9296875 4.72998047 C-2 3 -2 3 0 0 Z " fill="#426D40" transform="translate(78,44)"/>
<path d="M0 0 C0.66 0 1.32 0 2 0 C2.51949219 0.9178125 3.03898438 1.835625 3.57421875 2.78125 C7.25883309 9.27175827 10.97555565 15.71180571 15 22 C14.01 22 13.02 22 12 22 C10.354512 19.79707313 8.91814164 17.6550079 7.5 15.3125 C6.91412109 14.37374023 6.91412109 14.37374023 6.31640625 13.41601562 C5.55147535 12.18620248 4.79347684 10.95204643 4.04296875 9.71337891 C3.12465152 8.20477631 2.17411174 6.71588865 1.21875 5.23046875 C0 3 0 3 0 0 Z " fill="#63935F" transform="translate(139,100)"/>
<path d="M0 0 C0.33 0 0.66 0 1 0 C0 8.57142857 0 8.57142857 -1 12 C-0.34 12.33 0.32 12.66 1 13 C0.34 14.65 -0.32 16.3 -1 18 C-2.65 17.01 -4.3 16.02 -6 15 C-5.18872921 12.87453041 -4.37594602 10.74963805 -3.5625 8.625 C-3.11003906 7.44164063 -2.65757813 6.25828125 -2.19140625 5.0390625 C-1 2 -1 2 0 0 Z " fill="#478146" transform="translate(59,83)"/>
<path d="M0 0 C3.387199 1.4388102 5.3594104 3.22119499 7.75 6 C8.67039062 7.051875 8.67039062 7.051875 9.609375 8.125 C11 10 11 10 11 12 C10.01 12 9.02 12 8 12 C5 7.77777778 5 7.77777778 5 5 C4.360625 4.731875 3.72125 4.46375 3.0625 4.1875 C1 3 1 3 0 0 Z " fill="#518B4D" transform="translate(104,36)"/>
<path d="M0 0 C0.66 0 1.32 0 2 0 C1.67 1.32 1.34 2.64 1 4 C0.34 4 -0.32 4 -1 4 C-1.2475 4.61875 -1.495 5.2375 -1.75 5.875 C-3.20628639 8.35068687 -4.37812506 8.95125002 -7 10 C-6.34 8.35 -5.68 6.7 -5 5 C-4.34 5 -3.68 5 -3 5 C-2.690625 4.360625 -2.38125 3.72125 -2.0625 3.0625 C-1 1 -1 1 0 0 Z " fill="#477046" transform="translate(39,121)"/>
<path d="M0 0 C0.6875 1.625 0.6875 1.625 1 4 C-0.4375 7.25 -0.4375 7.25 -2 10 C-2.66 10 -3.32 10 -4 10 C-4 10.66 -4 11.32 -4 12 C-4.66 11.67 -5.32 11.34 -6 11 C-5.18993474 9.35296694 -4.3768779 7.70740494 -3.5625 6.0625 C-3.11003906 5.14597656 -2.65757813 4.22945313 -2.19140625 3.28515625 C-1 1 -1 1 0 0 Z " fill="#3A5F39" transform="translate(53,98)"/>
<path d="M0 0 C4.17950077 3.45889719 5.32762134 6.98286401 7 12 C6.01 12 5.02 12 4 12 C3.3291288 10.3767313 2.66342971 8.75132422 2 7.125 C1.62875 6.22007813 1.2575 5.31515625 0.875 4.3828125 C0 2 0 2 0 0 Z " fill="#729C6E" transform="translate(130,80)"/>
<path d="M0 0 C0.66 0 1.32 0 2 0 C2.86646667 1.43011973 3.71781829 2.86940619 4.5625 4.3125 C5.03816406 5.11300781 5.51382813 5.91351563 6.00390625 6.73828125 C7 9 7 9 6 12 C0 4.28571429 0 4.28571429 0 0 Z " fill="#74996F" transform="translate(139,100)"/>
<path d="M0 0 C4.2742558 1.5830577 6.26531794 4.50568404 9 8 C6 8 6 8 4.39453125 6.7578125 C3.87246094 6.21898437 3.35039062 5.68015625 2.8125 5.125 C2.28269531 4.59132813 1.75289062 4.05765625 1.20703125 3.5078125 C0 2 0 2 0 0 Z " fill="#6A9E68" transform="translate(153,122)"/>
<path d="M0 0 C0.66 0.33 1.32 0.66 2 1 C0.35 3.64 -1.3 6.28 -3 9 C-3.33 7.68 -3.66 6.36 -4 5 C-2.0625 2.25 -2.0625 2.25 0 0 Z " fill="#487048" transform="translate(47,110)"/>
<path d="M0 0 C3.375 -0.125 3.375 -0.125 7 0 C7.66 0.66 8.32 1.32 9 2 C4.545 2.495 4.545 2.495 0 3 C0 2.01 0 1.02 0 0 Z " fill="#507A4F" transform="translate(6,138)"/>
<path d="M0 0 C0.33 0 0.66 0 1 0 C1 1.98 1 3.96 1 6 C-0.98 6.99 -0.98 6.99 -3 8 C-2.45276317 4.62537285 -1.9451 2.91765 0 0 Z " fill="#388235" transform="translate(60,88)"/>
<path d="M0 0 C0.33 0 0.66 0 1 0 C0.25 7.75 0.25 7.75 -2 10 C-3.39195915 5.82412255 -1.82323219 3.86525224 0 0 Z " fill="#658C63" transform="translate(59,83)"/>
<path d="M0 0 C0.33 0.99 0.66 1.98 1 3 C-0.32 4.32 -1.64 5.64 -3 7 C-3.99 6.67 -4.98 6.34 -6 6 C-4.02 4.02 -2.04 2.04 0 0 Z " fill="#5CA554" transform="translate(43,124)"/>
<path d="M0 0 C0.66 0.99 1.32 1.98 2 3 C0.68 3.33 -0.64 3.66 -2 4 C-1.34 2.68 -0.68 1.36 0 0 Z M-4 2 C-3.34 2.99 -2.68 3.98 -2 5 C-3.65 5.33 -5.3 5.66 -7 6 C-6.01 4.68 -5.02 3.36 -4 2 Z " fill="#376A36" transform="translate(46,115)"/>
<path d="M0 0 C3.24732932 1.62366466 3.70155136 4.75387839 5 8 C4.01 8 3.02 8 2 8 C1.01 5.69 0.02 3.38 -1 1 C-0.67 0.67 -0.34 0.34 0 0 Z " fill="#5B8256" transform="translate(136,92)"/>
<path d="M0 0 C0 0.99 0 1.98 0 3 C-2.31 3.66 -4.62 4.32 -7 5 C-7 4.34 -7 3.68 -7 3 C-4.69 2.01 -2.38 1.02 0 0 Z " fill="#5C815B" transform="translate(25,133)"/>
</svg>
